@startuml
note as Fecha
UML servicios
Ultima edicion: 26/06/25 10:10
end note

class ServicioAlumno <<Servicio>> #eba9b0 {
	+ obtenerAlumnos(): List<Alumno>
	+ obtenerAlumnoPorId(id: string): Alumno
	+ obtenerAlumnoPorEmail(email: string): Alumno
	+ crearAlumno(usuario: Alumno): Alumno
	+ borrarAlumnoPorId(id: string): boolean
	+ resetearContraseña(usuario: Alumno): boolean
}

class ServicioProfesor <<Servicio>> #eba9b0 {
	+ obtenerProfesors(): List<Profesor>
	+ obtenerProfesorPorId(id: string): Profesor
	+ obtenerProfesorPorEmail(email: string): Profesor
	+ crearProfesor(usuario: Profesor): Profesor
	+ borrarProfesorPorId(id: string): boolean
	+ resetearContraseña(usuario: Profesor): boolean
}

class ServicioClase <<Servicio>> #eba9b0 {
	+ obtenerClases(): List<Clase>
	+ obtenerClasePorId(id: string): Clase
	+ obtenerClasePorTitulo(titulo: string): Clase
	+ crearClase(clase: Clase): Clase
	+ crearClaseDesdeLista(clases: List<Clase>): Clase
	+ borrarClasePorId(id: string): boolean
	+ borrarClasePorTitulo(titulo: string): boolean
}

class ServicioPago <<Servicio>> #eba9b0 {
	+ obtenerPagos(): List<Pago>
	+ obtenerPagoPorId(id: string): Pago
	+ obtenerPagoPorTitulo(titulo: string): Pago
	+ crearPago(pago: Pago): Pago
	+ crearPagoDesdeLista(clases: List<Pago>): Pago
	+ borrarPagoPorId(id: string): boolean
	+ borrarPagoPorTitulo(titulo: string): boolean
}

class ServicioEjercicio <<Servicio>> #eba9b0 {
    + obtenerEjercicios(): List<Ejercicio>
    + obtenerEjercicioPorId(id: string): Ejercicio
    + obtenerEjercicioPorNombre(nombre: string): Ejercicio
    + crearEjercicio(ejercicio: Ejercicio): Ejercicio
    + borrarEjercicioPorId(id: string): boolean
    + borrarEjercicioPorNombre(nombre: string): boolean
}

class ServicioEntregaEjercicio <<Servicio>> #eba9b0 {
    + obtenerEntregasEjercicio(): List<EntregaEjercicio>
    + obtenerEntregasEjercicioPorAlumnoId(): List<EntregaEjercicio>
    + obtenerEntregaEjercicioPorId(id: string): EntregaEjercicio
    + obtenerEntregaEjercicioPorAlumno(alumnoId: string): List<EntregaEjercicio>
    + crearEntregaEjercicio(entrega: EntregaEjercicio): EntregaEjercicio
    + borrarEntregaEjercicioPorId(id: string): boolean
}

namespace clase {



    abstract class Clase <<Entidad>>  #baf5ba {
      - id: string
      - titulo : string
      - descripcion : string
      - precio : float
      - presencialidad : ePresencialidad
      - imagen_portada : string
      - nivel : eNivel
      ..
      - alumnosId: List<string>
      - profesoresId: List<string>
      - ejerciciosId: List<string>
      --
      - material: List<Material>
    }

    class Taller <<Entidad>> #baf5ba extends Clase  {
      - duracionHoras : int
      - fechaRealizacion: LocalDate
      - horaComienzo: LocalTime
    }

    class Curso <<Entidad>> #baf5ba extends Clase  {
      - fechaInicio : LocalDate
      - fechaFin : LocalDate
    }

    class Material <<Agregado>> #baf5ba {
      - id: string
      - nombre: string
      - url: string
    }

    enum ePresencialidad #baf5ba {
      online
      presencial
    }

    enum eNivel #baf5ba {
      principiante
      intermedio
      avanzado
    }

    note top of Clase
    Clase es una clase abstracta
    Taller y Curso la implementan
    end note
}

' clase, pago, ejercicio
namespace usuario {

    abstract class Usuario <<Entidad>> #baecf5 {
      - id: string
      - usuario: string
      - contraseña: string
      - nombre: string
      - apellidos: string
      - dni: string
      - email : string
      - numeroTelefono: string
      + resetearContraseña()
    }

    class Profesor <<Entidad>> #baecf5 extends Usuario  {
      - clasesId: List<string>
    }

    class Alumno <<Entidad>> #baecf5 extends Usuario {
      - fechaInscripcion: LocalDateTime
      - matriculado: boolean
      - clasesId: List<string>
      - pagosId: List<string>
      - entregasId: List<string>
    }

    class Administrador <<Entidad>> #baecf5 extends Usuario {

    }

    note right of Usuario::contraseña
    La contraseña se encriptaria
    con BCryptPasswordEncoder

    El reseteo debería funcionar
    mediante email
    end note

    note right of Alumno::matriculado
    La matricula viene
    derivada de un pago
    Un alumno tiene una matrícula
    anual pagada una vez por año
    end note
}

' usuario
namespace pago {



    class Pago <<Entidad>> #ffd5ba {
      - id: string
      - fechaPago : LocalDateTime
      - importe : float
      - metodoPago : eMetodoPago
      - estado: eEstadoPago
      - alumnoId: string
      ..
      - items: List<ItemPago>
      ..
      + registrarPagoManual(): Pago
    }

    class ItemPago <<Agregado>> #ffd5ba {
      - id: string
      - concepto: string
      - precioUnitario: float
      - cantidad: int
      - pagoId: string
    }

    enum eMetodoPago #ffd5ba {
      efectivo
      debito
      credito
      transferencia
    }

    enum eEstadoPago #ffd5ba {
      exito
      error
      reenbolsado
    }

    note bottom of Pago
    Un admin o profesor puede
    registrar un pago manualmente
    que se haya hecho en metálico
    end note

    note right of Pago
    Una entidad pago solo se crea
    cuando se devuelva la
    confirmacion de Stripe
    end note
}

namespace ejercicio {
    class Ejercicio <<Entidad>> #ffdbfe {
      - id: string
      - nombre: string
      - enunciado: string
      - fechaInicioPlazo: LocalDateTime
      - fechaFinalPlazo: LocalDateTime
      ..
      - claseId: string
      --
      - entregas: List<EntregaEjercicio>
    }

    class EntregaEjercicio <<Entidad>> #ffdbfe {
      - id: string
      - nota: float
      - fechaEntrega: LocalDateTime
      - estado: eEstadoEjercicio
      - archivosEntregados: List<File>
      ..
      - alumnoEntreganteId: string
      - ejercicioId: string
    }

    enum eEstadoEjercicio #ffdbfe {
      pendiente
      entregado
      calificado
    }
}

' Relaciones
Profesor -- ServicioClase
Alumno -- ServicioClase
Alumno -- ServicioEntregaEjercicio
Alumno -- ServicioPago
Pago -- ServicioAlumno
Clase -- ServicioProfesor
Clase -- ServicioAlumno
Clase -- ServicioEjercicio
Ejercicio -- ServicioClase
EntregaEjercicio -- ServicioAlumno

Clase::material *- Material
EntregaEjercicio "0..1" -- Ejercicio 
ItemPago "1..*" -* "1" Pago::items

' Relaciones Enums
eMetodoPago .. Pago
ePresencialidad .. Clase
eNivel .. Clase
eEstadoPago .. Pago
eEstadoEjercicio .. EntregaEjercicio

@enduml